# xmcd CD database file
#
# Track frame offsets:
#	150
#	22976
#	39956
#	56007
#	70806
#	84933
#	103541
#	115487
#	143726
#	166143
#
# Disc length: 3090 seconds
#
# Revision: 0
# Processed by: cddbd v1.4PL0 Copyright (c) Steve Scherf et al.
# Submitted via: CDex 1.40Release
#
DISCID=770c100a
DTITLE=The BackUp Band - Volume One
DYEAR=1998
DGENRE=Blues
TTITLE0=Mess Of Blues
TTITLE1=Why Get Up
TTITLE2=Love Potion # 9
TTITLE3=Something You Got
TTITLE4=Hallelujah
TTITLE5=Beat Me With A Stick
TTITLE6=Forgive And Forget
TTITLE7=Nadine
TTITLE8=Can't Be Your Fool
TTITLE9=When A Man Loves A Woman
EXTD=YEAR: 1998 ID3G: 0
EXTT0=
EXTT1=
EXTT2=
EXTT3=
EXTT4=
EXTT5=
EXTT6=
EXTT7=
EXTT8=
EXTT9=
PLAYORDER=
